# xmcd CD database file
#
# Track frame offsets:
#	150
#	19367
#	32255
#	51845
#	66765
#	89900
#	106450
#	116050
#	134680
#	154495
#	169807
#	198702
#
# Disc length: 2860 seconds
#
# Revision: 1
# Processed by: cddbd v1.4PL0 Copyright (c) Steve Scherf et al.
# Submitted via: CDValet v3.40 - Copyright (c) 1996 - 1998 Greg Leichner
#
DISCID=b50b2a0c
DTITLE=Atkins, Ben - Mabelle
DYEAR=1900
DGENRE=
TTITLE0=Mabelle
TTITLE1=Last Hard Bible
TTITLE2=I'm To Blame
TTITLE3=I'll Come Around
TTITLE4=Another Place And Time
TTITLE5=The Same
TTITLE6=Milo Johnson
TTITLE7=Every Time You Turn Around
TTITLE8=Rivers And Pines
TTITLE9=You Pulled Me Down
TTITLE10=I Don't Want To Hide
TTITLE11=Ask Me Why
EXTD=
EXTT0=
EXTT1=
EXTT2=
EXTT3=
EXTT4=
EXTT5=
EXTT6=
EXTT7=
EXTT8=
EXTT9=
EXTT10=
EXTT11=
PLAYORDER=
